Genre:Animation | Comedy | Family
Language:English  http://www.imdb.com/title/tt1001526/
Source:IMAGINE Thx
Subtitles:Romana


Format : MPEG-4
Format profile : Base Media
Codec ID : isom
File size : 725 MiB
Duration : 1h 35mn
Overall bit rate : 1 059 Kbps
Movie name : Megamind.2010.Scr.H264.Feel-Free


Video
Format settings, CABAC : Yes
Format settings, ReFrames : 4 frames
Codec ID : avc1
Codec ID/Info : Advanced Video Coding
Duration : 1h 35mn
Bit rate mode : Variable
Bit rate : 877 Kbps
Width : 720 pixels
Height : 384 pixels
Display aspect ratio : 1.875
Frame rate mode : Constant
Frame rate : 29.970 fps
Color space : YUV
Chroma subsampling : 4:2:0
Bit depth : 8 bits
Scan type : Progressive
Bits/(Pixel*Frame) : 0.106
Stream size : 607 MiB (84%)

Audio
ID : 2
Format : AAC
Format/Info : Advanced Audio Codec
Format version : Version 4
Format profile : LC
Codec ID : 40
Duration : 1h 35mn
Bit rate mode : Variable
Bit rate : 165 Kbps
Channel(s) : 2 channels
Channel positions : Front: L R
Sampling rate : 48.0 KHz
Stream size : 113 MiB (16%)



Plot:
The supervillain Megamind finally conquers his nemesis, the hero Metro Man... but finds his life pointless without a hero to fight.
 
http://shareimage.org/images/lfvo7o4macgappc6x4d.png 
http://shareimage.org/images/kzfcj84k6cx06hwal12.png 
http://shareimage.org/images/9znpe6sgvw1vhz5g3y.png 
http://shareimage.org/images/87761ebdjg5c78sdgph.png 
http://shareimage.org/images/qxmj00yn412hw8xty67i.png